<?xml version="1.0" encoding="UTF-8"?>
<svg id="Primary_Lockup_copy" xmlns="http://www.w3.org/2000/svg" viewBox="0 0 3322 2128">
  <defs>
    <style>
      .cls-1, .cls-2 {
        fill: #64d297;
      }

      .cls-3 {
        letter-spacing: -.1em;
      }

      .cls-2 {
        font-family: TruenoLt, Trueno;
        font-size: 180px;
      }
    </style>
  </defs>
  <path class="cls-1" d="M1669.58,806.99c-10.48-12.42-27.68-23.83-60.22-20.2-42.34,4.73-62.35,30.7-78.61,55.91-15.66,24.28-22.62,53.47-22.62,91.48v116.9l-102.01-163.55c-.78-1.37-2.45-2.68-4.57-2.68h-41.01v.03h-40.95v10.02h5.74c20.73,0,26.76,1.96,26.76,14.9v214.54c0,1.47-.14,2.05-1.73,2.84-3.08,1.53-9.42,2.31-18.85,2.31h-10.29v10.02h71.78v-.03h40.95v-10.02h-9.48c-9.43,0-15.77-.78-18.85-2.31-1.59-.79-1.74-1.38-1.74-2.84v-152.76l103.13,165.25c.94,1.7,2.7,2.7,4.75,2.7h7.2l.04-49.14,28.96,46.4c.94,1.7,2.7,2.7,4.75,2.7h7.2l.17-196.07c0-27.08,5.63-49.95,16.28-66.14,11.48-17.44,28.08-26.29,49.33-26.29,6.26,0,10.39,1.72,14.76,3.55,4.04,1.69,8.23,3.14,13.69,3.44,11.09.61,22.2-6.9,23.88-17.29,1.85-7.39,2.17-21.13-8.42-33.69ZM1393.04,1124.31c0,1.47-.14,2.05-1.73,2.84-2.48,1.23-7.08,1.97-13.7,2.22-6.21-.27-10.56-1-12.94-2.19-1.59-.79-1.74-1.38-1.74-2.84v-214.38c0-1.5-.01-2.85-.04-4.09l30.15,48.32v170.12ZM1393.04,932.24l-23.3-37.36c17.95.24,23.3,2.69,23.3,14.88v22.48ZM1508.13,1116.77l-104.25-167.15v-39.69c0-1.5-.01-2.85-.04-4.09l104.29,167.11v43.82ZM1549.07,934.15v182.59l-30.05-48.19.11-125.1c0-27.08,5.63-49.95,16.28-66.14,7.66-11.64,17.61-19.43,29.69-23.34-10.51,20.89-16.02,48.29-16.02,80.18Z"/>
  <text class="cls-2" transform="translate(1427.33 1139.54)"><tspan class="cls-3" x="0" y="0" xml:space="preserve">					</tspan><tspan x="154.8" y="0">eha’s </tspan></text>
  <text class="cls-2" transform="translate(1303.54 1284.71)"><tspan x="0" y="0">nuggets</tspan></text>
</svg>